REM DIRINDEX 1\2,1\3,1\4,1\5
REM DIRNAME "folder01","folder02","folder03","folder04","folder05"
TITLE ""
FILE "1Q_t_1568-1577.mp3" MP3
  TRACK 01 AUDIO
    TITLE "3:cjc172_5690"
    INDEX 01 00:00:00
  TRACK 02 AUDIO
    TITLE "0:"
    INDEX 01 00:01:39
  TRACK 03 AUDIO
    TITLE "4:cjc172_5691"
    INDEX 01 00:01:47
  TRACK 04 AUDIO
    TITLE "0:"
    INDEX 01 00:03:38
  TRACK 05 AUDIO
    TITLE "5:cjc172_5692"
    INDEX 01 00:03:44
  TRACK 06 AUDIO
    TITLE "0:"
    INDEX 01 00:08:47
  TRACK 07 AUDIO
    TITLE "3:cjc172_5693"
    INDEX 01 00:09:21
  TRACK 08 AUDIO
    TITLE "0:"
    INDEX 01 00:10:30
  TRACK 09 AUDIO
    TITLE "4:cjc172_5694"
    INDEX 01 00:10:38
  TRACK 10 AUDIO
    TITLE "0:"
    INDEX 01 00:11:47
  TRACK 11 AUDIO
    TITLE "5:cjc172_5695"
    INDEX 01 00:11:53
  TRACK 12 AUDIO
    TITLE "0:"
    INDEX 01 00:16:19
  TRACK 13 AUDIO
    TITLE "3:cjc172_5696"
    INDEX 01 00:16:64
  TRACK 14 AUDIO
    TITLE "0:"
    INDEX 01 00:17:70
  TRACK 15 AUDIO
    TITLE "4:cjc172_5697"
    INDEX 01 00:17:73
  TRACK 16 AUDIO
    TITLE "0:"
    INDEX 01 00:19:63
  TRACK 17 AUDIO
    TITLE "5:cjc172_5698"
    INDEX 01 00:19:70
  TRACK 18 AUDIO
    TITLE "0:"
    INDEX 01 00:24:13
  TRACK 19 AUDIO
    TITLE "3:cjc172_5699"
    INDEX 01 00:24:56
  TRACK 20 AUDIO
    TITLE "0:"
    INDEX 01 00:26:04
  TRACK 21 AUDIO
    TITLE "4:cjc172_5700"
    INDEX 01 00:26:14
  TRACK 22 AUDIO
    TITLE "0:"
    INDEX 01 00:28:32
  TRACK 23 AUDIO
    TITLE "5:cjc172_5701"
    INDEX 01 00:28:40
  TRACK 24 AUDIO
    TITLE "0:"
    INDEX 01 00:32:46
  TRACK 25 AUDIO
    TITLE "3:cjc172_5702"
    INDEX 01 00:33:16
  TRACK 26 AUDIO
    TITLE "0:"
    INDEX 01 00:34:19
  TRACK 27 AUDIO
    TITLE "4:cjc172_5703"
    INDEX 01 00:34:27
  TRACK 28 AUDIO
    TITLE "0:"
    INDEX 01 00:37:55
  TRACK 29 AUDIO
    TITLE "5:cjc172_5704"
    INDEX 01 00:37:60
  TRACK 30 AUDIO
    TITLE "0:"
    INDEX 01 00:42:30
  TRACK 31 AUDIO
    TITLE "3:cjc172_5705"
    INDEX 01 00:43:04
  TRACK 32 AUDIO
    TITLE "0:"
    INDEX 01 00:44:27
  TRACK 33 AUDIO
    TITLE "4:cjc172_5706"
    INDEX 01 00:44:35
  TRACK 34 AUDIO
    TITLE "0:"
    INDEX 01 00:46:67
  TRACK 35 AUDIO
    TITLE "5:cjc172_5707"
    INDEX 01 00:47:00
  TRACK 36 AUDIO
    TITLE "0:"
    INDEX 01 00:50:61
  TRACK 37 AUDIO
    TITLE "3:cjc172_5708"
    INDEX 01 00:51:33
  TRACK 38 AUDIO
    TITLE "0:"
    INDEX 01 00:52:44
  TRACK 39 AUDIO
    TITLE "4:cjc172_5709"
    INDEX 01 00:52:52
  TRACK 40 AUDIO
    TITLE "0:"
    INDEX 01 00:53:63
  TRACK 41 AUDIO
    TITLE "5:cjc172_5710"
    INDEX 01 00:53:69
  TRACK 42 AUDIO
    TITLE "0:"
    INDEX 01 00:58:45
  TRACK 43 AUDIO
    TITLE "3:cjc172_5711"
    INDEX 01 00:59:21
  TRACK 44 AUDIO
    TITLE "0:"
    INDEX 01 01:00:54
  TRACK 45 AUDIO
    TITLE "4:cjc172_5712"
    INDEX 01 01:00:61
  TRACK 46 AUDIO
    TITLE "0:"
    INDEX 01 01:02:00
  TRACK 47 AUDIO
    TITLE "5:cjc172_5713"
    INDEX 01 01:02:07
  TRACK 48 AUDIO
    TITLE "0:"
    INDEX 01 01:06:17
  TRACK 49 AUDIO
    TITLE "3:cjc172_5714"
    INDEX 01 01:06:62
  TRACK 50 AUDIO
    TITLE "0:"
    INDEX 01 01:08:02
  TRACK 51 AUDIO
    TITLE "4:cjc172_5715"
    INDEX 01 01:08:10
  TRACK 52 AUDIO
    TITLE "0:"
    INDEX 01 01:10:56
  TRACK 53 AUDIO
    TITLE "5:cjc172_5716"
    INDEX 01 01:10:64
  TRACK 54 AUDIO
    TITLE "0:"
    INDEX 01 01:13:64
  TRACK 55 AUDIO
    TITLE "3:cjc172_5717"
    INDEX 01 01:14:34
  TRACK 56 AUDIO
    TITLE "0:"
    INDEX 01 01:15:47
  TRACK 57 AUDIO
    TITLE "4:cjc172_5718"
    INDEX 01 01:15:61
  TRACK 58 AUDIO
    TITLE "0:"
    INDEX 01 01:18:03
  TRACK 59 AUDIO
    TITLE "5:cjc172_5719"
    INDEX 01 01:18:10
  TRACK 60 AUDIO
    TITLE "0:"
    INDEX 01 01:22:22
